<svg version="1" xmlns="http://www.w3.org/2000/svg" width="386.667" height="386.667" viewBox="0 0 290.000000 290.000000"><path d="M39.4 2.5c-7.4 4.4-7.7 6-7.6 40.4 0 34.2.2 35.3 7.7 39.6l4.2 2.5H145c100.3 0 101.4 0 105.6-2.1 3.1-1.5 4.8-3.2 6.3-6.3 2-4 2.1-6 2.1-33.9 0-33.4-.3-35.4-6.7-39.7L248.6.5 146.1.3 43.5 0l-4.1 2.5zM39.5 103.9c-3.3 1.4-7.2 5.9-7.9 9.2-.3 1.8-.6 16.8-.6 33.4 0 29.7 0 30.3 2.3 33.6 4.8 7.3-.9 6.9 96.7 6.9 97.7 0 92.2.4 96.5-7 1.9-3.3 2-5.2 1.9-35 0-34.8-.1-35.5-6.3-39.7l-3.4-2.3-88.6.1c-48.7 0-89.5.4-90.6.8zM34.7 205.6c-1.1.7-2.4 2-2.8 3-.4 1.1-.8 18.6-.8 39-.1 36.1 0 37.2 2 39.8l2 2.6h77l2.3-2.3 2.3-2.3.1-38.3c0-36.3-.1-38.4-1.9-40.2-1-1-2.5-2-3.1-2-.7-.1-17.9-.2-38.1-.3-25.9-.1-37.5.2-39 1z"/></svg>