<?xml version="1.0" standalone="no"?>
<!DOCTYPE svg PUBLIC "-//W3C//DTD SVG 20010904//EN"
 "http://www.w3.org/TR/2001/REC-SVG-20010904/DTD/svg10.dtd">
<svg version="1.0" xmlns="http://www.w3.org/2000/svg"
 width="400.000000pt" height="400.000000pt" viewBox="0 0 400.000000 400.000000"
 preserveAspectRatio="xMidYMid meet">
<metadata>
Created by potrace 1.11, written by Peter Selinger 2001-2013
</metadata>
<g transform="translate(0.000000,400.000000) scale(0.100000,-0.100000)"
fill="#000000" stroke="none">
<path d="M2085 3700 c4 -12 2 -20 -5 -20 -6 0 -9 -4 -5 -9 3 -5 1 -12 -4 -15
-5 -4 -11 2 -14 11 -3 14 -6 12 -15 -9 -13 -31 -37 -39 -29 -9 5 21 -23 24
-36 3 -6 -10 -15 -7 -39 10 -45 32 -76 33 -84 2 -5 -19 -11 -23 -23 -18 -41
18 -70 15 -110 -10 -23 -15 -55 -29 -71 -33 -17 -3 -33 -10 -36 -14 -3 -5 -14
-9 -24 -9 -33 0 -330 -216 -330 -241 0 -4 -11 -21 -25 -38 -37 -44 -111 -196
-128 -266 -9 -33 -18 -96 -22 -140 -7 -86 -31 -221 -43 -239 -15 -23 -22 -534
-8 -641 4 -38 8 -88 7 -111 -2 -52 16 -69 63 -60 29 6 35 3 41 -14 3 -11 3
-29 0 -40 -4 -12 0 -26 9 -36 11 -10 16 -34 16 -70 0 -30 5 -54 10 -54 6 0 10
-7 10 -15 0 -20 42 -149 51 -155 13 -10 49 -94 49 -114 0 -12 -20 -51 -45 -88
-25 -37 -45 -72 -45 -78 0 -6 -4 -9 -8 -6 -16 10 -172 -249 -172 -286 0 -7 15
12 32 42 97 170 110 181 61 50 -39 -103 -40 -109 -14 -80 12 13 31 39 42 57
38 61 50 39 23 -41 -21 -60 -12 -70 11 -14 22 53 33 28 16 -37 -6 -24 -11 -49
-11 -56 0 -19 26 8 41 42 18 45 32 13 19 -43 -5 -24 -10 -49 -10 -55 0 -25 18
-13 31 20 l13 32 6 -65 c4 -36 7 -59 8 -52 1 6 7 12 12 12 6 0 10 -20 10 -45
0 -47 11 -72 65 -140 18 -22 40 -55 49 -73 38 -75 177 -242 201 -242 5 0 -1
10 -15 23 -14 12 -25 29 -25 37 0 8 -6 14 -12 13 -7 -2 -12 0 -12 5 1 4 0 9
-1 12 -1 3 -3 14 -4 25 -2 11 -6 31 -10 45 -5 16 -4 20 2 12 5 -8 12 -12 16
-10 3 1 13 -9 20 -24 11 -20 11 -28 3 -32 -7 -2 4 -2 23 1 19 4 36 10 38 15 2
4 15 5 29 2 18 -5 30 -2 38 9 6 9 18 17 25 19 30 6 37 41 17 77 -10 19 -16 43
-13 55 3 11 -3 34 -13 50 -11 17 -22 46 -26 64 -12 56 21 80 168 122 43 12 84
19 92 16 8 -3 17 -1 20 3 3 5 27 14 55 21 27 7 50 16 50 22 0 5 6 8 12 6 7 -3
19 1 26 9 7 7 24 13 38 13 13 0 24 5 24 12 0 6 3 9 6 6 3 -3 22 10 42 28 20
19 49 37 65 41 17 3 27 12 27 23 0 9 12 22 26 28 14 7 22 17 19 22 -3 6 -1 10
5 10 13 0 80 65 80 78 0 5 9 17 20 27 18 17 20 17 14 2 -3 -9 -10 -17 -16 -17
-5 0 -7 -4 -3 -10 5 -9 -19 -61 -83 -175 -15 -27 -37 -66 -47 -85 -11 -19 -25
-42 -31 -50 -6 -8 -14 -27 -18 -43 -4 -15 -21 -47 -39 -70 -17 -24 -48 -71
-67 -105 -19 -34 -41 -62 -48 -62 -7 0 -10 -5 -7 -10 3 -6 2 -10 -4 -10 -14 0
-91 -77 -84 -84 4 -3 1 -7 -5 -7 -21 -2 -26 -4 -85 -33 -32 -15 -67 -37 -77
-48 -17 -18 -24 -19 -60 -10 -35 9 -39 8 -29 -4 6 -8 7 -14 2 -14 -6 0 -10
-13 -11 -30 -1 -45 -10 -53 -50 -46 -58 9 -66 -8 -30 -62 18 -26 33 -49 34
-51 5 -7 135 109 225 201 37 37 82 75 102 83 33 14 144 129 184 193 10 15 23
33 30 40 7 7 13 19 13 25 0 7 17 37 38 68 57 86 63 95 56 79 -5 -10 -4 -12 3
-5 6 6 18 35 28 65 9 30 33 84 52 119 35 65 86 234 75 246 -4 4 1 11 11 16 9
6 17 19 17 29 0 10 8 24 18 29 10 6 12 11 4 11 -8 0 -10 5 -6 13 4 6 -5 0 -21
-16 -31 -30 -45 -34 -45 -12 0 8 -4 15 -10 15 -5 0 -10 -9 -10 -20 0 -21 -20
-28 -21 -7 0 6 -4 3 -9 -8 -8 -18 -9 -18 -9 5 -1 14 -7 37 -15 51 -7 15 -11
40 -8 55 l5 29 -22 -24 c-11 -13 -21 -20 -21 -15 0 6 6 16 13 23 8 10 8 12 0
7 -14 -7 -18 -2 -27 38 -6 26 -5 28 8 17 9 -7 13 -17 10 -22 -3 -5 -1 -9 5 -9
6 0 8 12 5 29 -4 16 -1 32 5 35 6 4 11 20 11 36 0 22 4 28 15 24 13 -5 14 3
11 47 -7 90 -17 118 -47 140 -20 14 -29 16 -29 7 0 -7 -11 0 -25 15 -30 31
-45 34 -46 10 0 -16 -1 -16 -12 1 -24 39 -63 71 -79 68 -10 -2 -18 2 -18 8 0
7 -6 8 -19 0 -22 -11 -96 -12 -124 -1 -13 5 4 12 55 23 87 20 108 20 108 -1 0
-9 7 -3 15 13 8 15 15 31 15 34 0 11 -138 -10 -180 -29 -28 -12 -46 -16 -48
-9 -2 5 -28 21 -58 35 -31 14 -54 31 -54 40 0 8 5 15 10 15 6 0 10 9 10 20 0
12 9 39 20 61 12 22 18 44 15 49 -3 5 -1 11 4 14 13 8 23 80 25 171 1 106 18
139 70 143 21 2 46 0 55 -4 9 -4 18 -7 21 -6 3 0 5 -31 5 -69 1 -53 5 -73 19
-86 17 -17 18 -17 11 5 -5 17 -1 30 15 47 17 18 19 25 8 32 -29 18 -39 40 -29
66 19 49 92 9 77 -41 -4 -13 -1 -22 9 -26 9 -3 15 -11 14 -18 -3 -27 1 -38 15
-38 8 0 21 -6 28 -13 32 -33 79 -41 202 -38 44 1 23 13 -30 18 -55 5 -84 18
-84 39 0 8 -4 13 -9 10 -7 -5 -21 14 -21 28 0 1 17 0 39 -2 32 -3 42 1 60 24
l22 28 21 -21 20 -21 -21 -7 c-37 -11 -6 -35 46 -35 25 0 42 -4 38 -9 -3 -6 8
-8 28 -4 28 4 37 1 50 -17 12 -18 19 -20 35 -11 27 15 30 14 35 -6 4 -16 5
-16 6 -1 0 9 10 19 21 23 55 17 83 126 36 139 -12 3 -25 0 -31 -8 -9 -12 -15
-12 -35 0 -14 7 -32 13 -40 13 -8 0 0 -7 18 -15 40 -18 41 -32 2 -47 -16 -6
-30 -15 -30 -19 0 -18 -50 -6 -78 17 -30 25 -56 35 -34 13 7 -7 12 -15 12 -20
0 -11 -29 2 -76 34 -23 15 -47 28 -53 28 -16 0 -91 34 -91 41 0 3 24 5 53 3
44 -3 47 -2 23 6 -16 5 -32 13 -35 18 -3 5 -22 17 -41 27 l-35 18 30 9 c17 5
53 7 81 4 28 -3 53 -3 56 0 13 13 -25 62 -59 77 -67 28 -91 29 -113 7 -21 -21
-18 -46 3 -34 7 4 9 4 5 -1 -4 -4 -3 -15 4 -22 15 -18 2 -27 -68 -48 -29 -8
-54 -22 -58 -30 -3 -8 -16 -15 -30 -15 -13 0 -26 -7 -29 -14 -7 -18 -74 -10
-95 11 -7 7 -22 13 -33 13 -10 0 -19 6 -19 14 0 8 -6 21 -13 28 -22 23 -87
115 -87 124 -2 35 -102 94 -160 94 -10 0 -22 5 -25 10 -3 6 -17 10 -30 10 -13
0 -27 5 -31 11 -4 7 -24 9 -50 6 -34 -3 -44 -1 -48 12 -3 11 -5 10 -4 -4 1
-41 -2 -49 -12 -39 -8 8 -7 20 0 40 7 18 9 51 4 89 -5 33 -8 98 -8 145 -1 71
2 87 17 98 17 13 17 15 1 26 -18 14 -12 36 11 36 7 0 16 8 18 18 4 16 5 16 6
0 0 -10 7 -18 14 -18 24 0 45 33 68 105 13 39 30 75 38 81 10 8 11 13 3 18
-17 10 -3 36 20 36 15 0 18 5 14 16 -8 21 19 64 39 64 8 0 15 -5 15 -11 0 -7
10 -5 25 5 14 9 42 18 63 19 20 1 42 5 47 9 14 8 75 21 105 23 14 0 33 6 43
11 26 15 67 5 67 -15 0 -13 2 -13 9 -2 10 16 58 24 66 11 3 -5 17 -5 32 1 19
7 32 6 49 -6 13 -8 24 -11 24 -5 0 6 19 7 48 4 44 -5 100 -31 130 -61 7 -7 17
-13 22 -13 5 0 40 -30 77 -68 72 -71 116 -122 108 -122 -3 0 3 -10 14 -22 11
-11 18 -25 15 -30 -3 -4 1 -8 8 -8 15 0 42 -39 34 -47 -3 -4 2 -12 12 -20 9
-8 11 -12 5 -8 -22 11 -14 -6 12 -27 14 -11 25 -24 25 -30 0 -5 6 -24 14 -41
14 -33 31 -92 46 -162 11 -55 10 -350 -1 -405 -6 -24 -15 -48 -22 -52 -8 -6
-5 -14 13 -27 19 -15 24 -27 22 -54 -2 -24 2 -37 13 -41 9 -3 14 -2 11 3 -3 5
1 14 9 21 8 7 15 17 15 23 0 6 8 19 17 29 9 10 17 37 18 61 2 49 31 202 41
218 18 29 22 93 13 199 l-9 115 -72 145 c-40 80 -72 149 -70 153 8 24 -154
207 -176 199 -6 -2 -16 6 -22 18 -11 20 -10 21 12 9 16 -8 11 0 -15 25 -20 20
-41 35 -46 32 -4 -3 -19 6 -31 19 -30 32 -63 32 -80 0 -15 -27 -30 -33 -30
-11 0 33 -39 102 -66 117 -16 9 -54 20 -84 24 -30 4 -73 15 -95 25 -89 39
-115 46 -125 30 -7 -11 -14 -12 -35 -2 -35 16 -37 15 -30 -8z m122 -44 c4 -5
1 -7 -8 -3 -9 3 -21 1 -26 -4 -6 -6 -14 -5 -22 4 -10 12 -7 14 18 13 16 -1 33
-5 38 -10z m173 -52 c0 -8 -4 -12 -10 -9 -5 3 -10 10 -10 16 0 5 5 9 10 9 6 0
10 -7 10 -16z m260 -115 c0 -5 -7 -9 -16 -9 -8 0 -12 -4 -9 -10 3 -5 1 -10 -4
-10 -15 0 -14 37 2 43 15 5 27 -1 27 -14z m-910 -908 c24 -10 50 -27 57 -38
12 -18 10 -19 -70 -20 -81 -1 -84 0 -100 27 -16 26 -16 28 6 38 31 15 56 13
107 -7z m56 -88 c-2 -3 -26 -1 -53 3 -35 5 -43 9 -28 14 18 6 90 -9 81 -17z
m-549 -30 c-3 -3 -11 -2 -17 2 -9 6 -9 10 1 16 14 8 27 -7 16 -18z m534 -5 c4
-6 15 -8 25 -4 14 5 16 4 7 -4 -8 -9 -20 -9 -45 -2 -18 6 -49 16 -68 21 -31
10 -29 10 20 5 30 -3 58 -10 61 -16z m184 -18 c3 -6 -1 -7 -9 -4 -18 7 -21 14
-7 14 6 0 13 -4 16 -10z m-235 -10 c0 -5 -4 -10 -10 -10 -5 0 -10 5 -10 10 0
6 5 10 10 10 6 0 10 -4 10 -10z m75 -32 c12 -18 12 -24 3 -26 -40 -11 -43 -14
-23 -23 16 -6 14 -7 -10 -4 -16 2 -40 4 -52 4 -13 1 -23 5 -23 10 0 5 10 11
23 13 12 2 26 13 32 26 12 28 30 28 50 0z m-438 -50 c-2 -13 -4 -3 -4 22 0 25
2 35 4 23 2 -13 2 -33 0 -45z m983 -20 c0 -16 -3 -19 -11 -11 -6 6 -8 16 -5
22 11 17 16 13 16 -11z m110 6 c0 -9 -5 -14 -12 -12 -18 6 -21 28 -4 28 9 0
16 -7 16 -16z m-1087 -54 c3 -11 1 -18 -4 -14 -5 3 -9 12 -9 20 0 20 7 17 13
-6z m239 -18 c32 -12 78 -20 102 -19 42 2 45 0 40 -20 -4 -16 1 -25 23 -38 21
-12 23 -15 7 -12 -20 4 -21 0 -19 -52 1 -48 -2 -59 -24 -82 -14 -14 -39 -43
-55 -65 -44 -57 -146 -155 -157 -149 -5 4 -6 -1 -3 -9 3 -9 1 -16 -6 -16 -6 0
-8 -4 -5 -10 3 -5 2 -10 -2 -10 -5 0 -17 -19 -28 -42 -19 -42 -19 -43 -23 -15
-2 18 3 36 14 48 16 17 16 19 1 19 -20 0 -23 16 -4 23 8 3 9 8 1 16 -7 8 -16
6 -31 -8 -20 -19 -33 -18 -33 1 0 5 5 6 10 3 6 -3 10 5 10 18 0 14 -7 27 -15
31 -8 3 -15 12 -15 19 0 8 -9 22 -20 32 -17 15 -18 26 -14 92 6 73 11 87 57
135 9 10 13 18 7 18 -5 0 -10 4 -10 10 0 5 7 6 17 3 12 -5 14 -3 7 8 -16 27
-14 40 6 29 10 -6 27 -9 37 -9 16 1 16 2 1 6 -21 5 -12 33 11 34 10 0 11 2 4
6 -7 2 -13 12 -13 20 0 19 40 14 122 -15z m-197 -505 c-4 -8 -13 -18 -20 -21
-11 -4 -11 1 -3 25 6 18 14 27 20 21 5 -5 6 -16 3 -25z m850 -7 c3 -5 1 -10
-4 -10 -6 0 -11 5 -11 10 0 6 2 10 4 10 3 0 8 -4 11 -10z m-41 -45 c8 -33 30
-33 24 0 -3 14 -1 25 4 25 5 0 8 -12 6 -27 -2 -21 -9 -28 -25 -29 -15 -1 -20
3 -15 14 3 9 1 13 -5 9 -11 -7 -23 13 -23 40 0 23 27 -2 34 -32z m-814 -25 c0
-22 -4 -40 -10 -40 -11 0 -14 63 -3 73 11 12 13 8 13 -33z m646 -6 c6 2 16 0
21 -5 15 -15 81 0 86 20 3 11 5 9 6 -6 0 -13 6 -23 11 -23 6 0 10 -7 10 -15 0
-18 12 -19 28 -3 10 10 12 7 9 -12 -4 -23 -8 -25 -52 -22 -40 3 -47 1 -41 -13
3 -9 2 -13 -4 -10 -5 3 -37 8 -71 11 -58 5 -97 23 -81 38 3 4 -2 4 -11 0 -12
-4 -25 1 -37 14 -23 24 -14 34 35 39 16 2 31 8 33 13 2 5 13 0 25 -11 12 -11
27 -17 33 -15z m224 -64 c0 -11 -7 -20 -15 -20 -27 0 -18 30 13 39 1 1 2 -8 2
-19z m-484 -25 c6 -14 8 -14 18 0 10 13 14 13 38 1 17 -9 30 -11 34 -5 3 5 15
7 27 3 12 -4 66 -7 120 -6 53 0 97 -3 97 -6 0 -4 12 -8 28 -8 104 -6 113 -11
88 -48 -18 -28 -91 -45 -109 -27 -6 6 -21 11 -33 11 -13 0 -26 5 -29 11 -5 6
-12 4 -20 -7 -12 -16 -19 -17 -91 -6 -44 7 -83 18 -89 25 -5 7 -18 11 -28 9
-10 -2 -24 2 -32 8 -10 8 -19 8 -33 1 -24 -13 -32 -5 -32 31 0 21 5 28 20 28
11 0 23 -7 26 -15z m519 -85 c-3 -5 -2 -10 4 -10 7 0 7 -8 2 -22 -5 -13 -7
-43 -5 -67 2 -32 0 -41 -9 -32 -18 18 -30 13 -24 -11 6 -30 -7 -74 -21 -71 -7
2 -9 -4 -5 -14 5 -12 3 -14 -7 -8 -9 5 -11 4 -6 -4 4 -6 11 -9 16 -6 8 5 22
-19 25 -46 2 -21 -22 -55 -32 -44 -5 4 -2 10 5 12 6 3 12 12 12 21 0 15 -2 15
-10 2 -8 -13 -10 -13 -10 2 0 9 -10 27 -22 40 l-23 23 -25 -23 c-14 -13 -24
-30 -22 -38 2 -12 -2 -12 -25 -2 -43 18 -50 26 -50 54 0 18 2 22 8 13 6 -11 9
-10 14 3 8 20 -2 41 -16 33 -5 -4 -9 -3 -9 2 0 4 -30 9 -67 10 -36 2 -73 9
-81 15 -9 7 -13 8 -9 2 3 -6 -3 -18 -14 -27 -10 -9 -19 -12 -19 -7 0 5 -7 7
-15 4 -11 -4 -13 -2 -9 9 6 15 -28 42 -39 31 -3 -3 -17 2 -31 11 -22 15 -23
19 -11 31 8 9 29 13 54 11 44 -4 50 3 25 27 -18 19 -29 17 116 20 140 4 264
25 305 53 23 15 39 17 30 3z m0 -181 c-6 -16 -9 -18 -16 -8 -4 8 -3 19 3 26
15 18 21 9 13 -18z m-25 -49 c0 -5 -2 -10 -4 -10 -3 0 -8 5 -11 10 -3 6 -1 10
4 10 6 0 11 -4 11 -10z m60 -71 c0 -10 -5 -21 -11 -24 -6 -4 -9 4 -7 21 2 18
-2 29 -9 29 -7 0 -13 3 -13 8 0 4 0 13 0 20 1 19 40 -33 40 -54z m-229 -31 c7
-13 6 -18 -2 -18 -8 0 -8 -4 1 -15 7 -8 10 -22 6 -30 -3 -9 -2 -14 2 -12 4 3
16 -5 27 -16 11 -11 14 -17 8 -13 -9 5 -13 1 -13 -12 0 -25 -36 -66 -50 -57
-6 4 -9 13 -6 20 10 26 -8 24 -35 -5 -17 -18 -35 -27 -44 -24 -18 7 -18 9 -3
34 7 10 9 23 5 27 -9 9 -28 -17 -21 -29 3 -4 0 -8 -5 -8 -6 0 -11 -6 -11 -14
0 -8 -13 -24 -30 -36 -16 -12 -30 -18 -30 -14 0 4 -6 0 -13 -11 -8 -10 -19
-15 -25 -11 -7 4 -12 1 -12 -6 -1 -7 -6 -3 -13 10 -7 12 -16 19 -20 16 -4 -4
-7 4 -7 18 0 22 -4 25 -26 20 -24 -4 -25 -3 -15 16 6 11 11 31 11 43 0 18 -2
19 -15 9 -12 -10 -15 -10 -16 1 -1 8 -3 29 -5 47 -3 27 0 32 16 32 12 0 20 7
20 17 0 13 3 14 12 5 8 -8 8 -15 0 -25 -7 -8 -9 -17 -5 -20 9 -10 25 -9 19 1
-7 12 19 40 48 52 17 6 25 6 21 0 -3 -6 1 -10 9 -10 8 0 18 4 21 10 3 5 19 7
35 3 19 -3 30 -1 30 6 0 6 9 11 20 11 11 0 20 -7 20 -15 0 -8 9 -15 20 -15 14
0 18 5 13 17 -5 12 -3 14 8 8 11 -6 12 -5 2 6 -15 16 -17 33 -3 24 6 -3 10 0
10 7 1 13 22 -10 41 -44z m209 42 c0 -5 -5 -10 -11 -10 -5 0 -7 5 -4 10 3 6 8
10 11 10 2 0 4 -4 4 -10z m-589 -72 c1 -7 1 -17 0 -22 -1 -5 4 -13 11 -17 7
-5 9 -9 3 -9 -5 0 -16 4 -24 9 -9 6 -23 4 -38 -6 -13 -9 -27 -13 -30 -9 -4 4
2 9 14 12 11 3 26 17 33 30 14 26 29 32 31 12z m447 -31 c14 -9 17 -47 3 -47
-5 0 -13 9 -16 20 -3 11 -11 20 -16 20 -5 0 -9 4 -9 9 0 10 19 9 38 -2z m-539
-79 c-8 -14 -14 -18 -17 -10 -4 13 17 46 25 38 3 -2 -1 -15 -8 -28z m551 6 c0
-8 -19 -13 -24 -6 -3 5 1 9 9 9 8 0 15 -2 15 -3z m-180 -70 c0 -8 -4 -12 -10
-9 -5 3 -10 10 -10 16 0 5 5 9 10 9 6 0 10 -7 10 -16z m-285 -844 c3 -5 1 -10
-4 -10 -6 0 -11 5 -11 10 0 6 2 10 4 10 3 0 8 -4 11 -10z"/>
<path d="M2121 1231 c-8 -5 -9 -11 -3 -15 5 -3 12 1 16 9 6 17 6 18 -13 6z"/>
<path d="M2080 1061 c0 -5 5 -13 10 -16 6 -3 10 -2 10 4 0 5 -4 13 -10 16 -5
3 -10 2 -10 -4z"/>
<path d="M2015 1010 c-3 -5 -1 -10 4 -10 6 0 11 5 11 10 0 6 -2 10 -4 10 -3 0
-8 -4 -11 -10z"/>
<path d="M1760 3400 c0 -5 5 -10 10 -10 6 0 10 5 10 10 0 6 -4 10 -10 10 -5 0
-10 -4 -10 -10z"/>
<path d="M2528 2393 c7 -3 16 -2 19 1 4 3 -2 6 -13 5 -11 0 -14 -3 -6 -6z"/>
<path d="M2588 2383 c6 -2 18 -2 25 0 6 3 1 5 -13 5 -14 0 -19 -2 -12 -5z"/>
<path d="M2885 2254 c-6 -2 -9 -38 -7 -86 2 -53 -2 -106 -13 -151 -9 -38 -14
-71 -11 -74 3 -3 18 21 33 53 22 46 28 73 27 121 -1 66 8 72 30 20 9 -20 15
-26 15 -14 1 10 8 29 17 43 21 32 11 43 -17 18 -21 -19 -21 -19 -18 6 5 46
-23 78 -56 64z"/>
<path d="M2828 1873 c-8 -21 -11 -49 -8 -63 5 -20 9 -13 17 35 6 33 10 61 9
63 -2 1 -9 -15 -18 -35z"/>
<path d="M2320 1885 c0 -9 11 -37 24 -63 13 -26 27 -58 31 -72 9 -28 30 -52
39 -43 3 3 2 11 -2 17 -5 6 -14 31 -21 56 -22 79 -71 150 -71 105z"/>
<path d="M2796 1744 c-4 -20 -5 -38 -2 -41 2 -3 8 11 12 31 3 21 4 39 1 42 -2
3 -8 -11 -11 -32z"/>
<path d="M2770 1655 c0 -8 2 -15 4 -15 2 0 6 7 10 15 3 8 1 15 -4 15 -6 0 -10
-7 -10 -15z"/>
<path d="M2460 1365 c0 -8 4 -15 10 -15 5 0 7 7 4 15 -4 8 -8 15 -10 15 -2 0
-4 -7 -4 -15z"/>
<path d="M2521 1304 c0 -11 3 -14 6 -6 3 7 2 16 -1 19 -3 4 -6 -2 -5 -13z"/>
<path d="M2580 1300 c0 -5 5 -10 10 -10 6 0 10 5 10 10 0 6 -4 10 -10 10 -5 0
-10 -4 -10 -10z"/>
<path d="M1050 1105 c0 -8 -5 -15 -11 -15 -5 0 -8 -4 -4 -10 3 -5 13 -7 23 -4
9 3 3 -3 -15 -12 -18 -10 -33 -26 -35 -37 -2 -11 -10 -22 -18 -25 -12 -4 -13
-2 -2 9 6 7 12 30 12 51 l0 37 -38 -13 c-21 -8 -62 -27 -90 -42 -29 -16 -67
-36 -84 -45 l-32 -16 30 -17 c29 -16 29 -16 -28 -10 -40 4 -58 3 -58 -5 0 -6
8 -11 18 -11 17 0 124 -51 118 -57 -1 -1 -28 4 -60 12 -74 19 -115 20 -66 1
80 -31 100 -41 100 -48 0 -4 -6 -8 -13 -8 -15 0 -57 -85 -67 -137 -4 -21 -15
-65 -24 -98 -16 -60 -21 -125 -10 -125 4 0 13 8 20 18 12 15 15 15 24 2 6 -8
8 -32 4 -52 -8 -51 8 -48 35 7 39 78 53 54 26 -45 -17 -64 -18 -70 -6 -70 4 0
20 27 35 60 42 93 55 79 27 -28 -17 -62 -2 -73 26 -19 13 26 27 47 31 47 10 0
5 -72 -7 -117 -15 -53 6 -39 36 25 33 69 42 48 20 -47 -15 -65 -7 -83 13 -28
7 17 19 48 27 67 l14 35 -6 -50 c-3 -27 -8 -68 -10 -90 -4 -30 1 -21 21 38 15
42 31 77 36 77 6 0 7 -24 3 -57 -6 -49 -5 -56 6 -45 8 7 19 27 25 44 6 18 16
34 24 36 10 4 11 -8 6 -57 -4 -33 -4 -61 -1 -61 3 0 16 22 29 50 13 27 26 47
30 43 3 -3 6 -35 6 -69 0 -73 13 -90 30 -39 20 60 30 39 30 -60 0 -92 8 -114
29 -77 9 16 10 16 16 0 4 -10 17 -18 30 -18 21 0 23 3 18 42 -3 24 -12 59 -20
78 -19 46 -43 170 -33 170 10 0 20 -26 20 -55 0 -56 24 -73 35 -25 9 43 21 37
35 -18 11 -43 13 -46 25 -28 8 10 16 23 18 29 6 19 27 -4 27 -29 0 -27 24 -33
34 -9 9 24 23 17 35 -16 8 -24 15 -29 30 -24 14 4 25 -1 37 -20 9 -14 24 -25
34 -25 9 0 25 -9 35 -20 19 -21 45 -27 45 -10 0 5 -13 19 -30 31 -16 12 -27
25 -25 29 3 5 -118 90 -129 90 -24 0 -154 110 -178 150 -46 75 -87 102 -89 58
0 -22 -1 -22 -8 -3 -5 11 -4 23 0 26 5 3 -5 18 -23 35 -17 16 -28 23 -23 15 5
-9 3 -12 -6 -9 -8 2 -22 21 -33 42 -10 21 -29 49 -42 63 -13 14 -24 34 -24 44
0 37 -182 98 -251 85 -36 -6 -40 -12 -40 -68 0 -31 -25 -39 -36 -12 -9 24 18
93 46 117 15 12 40 40 56 62 16 22 51 66 77 98 47 57 58 74 38 62 -5 -3 -10
-1 -10 4 0 6 9 11 20 11 11 0 28 12 37 27 10 15 28 39 41 53 39 43 52 60 52
65 0 3 -16 5 -35 5 -24 0 -35 -5 -35 -15z m-254 -373 c-20 -20 -22 -1 -3 28
10 18 12 18 15 4 2 -9 -3 -24 -12 -32z m20 -157 c-7 -27 11 -34 32 -13 8 8 9
4 3 -18 -9 -33 -38 -44 -47 -17 -3 10 -10 26 -16 37 -7 14 -6 21 4 27 23 15
30 10 24 -16z"/>
<path d="M648 903 c7 -3 16 -2 19 1 4 3 -2 6 -13 5 -11 0 -14 -3 -6 -6z"/>
<path d="M960 870 c-6 -11 -8 -20 -6 -20 3 0 10 9 16 20 6 11 8 20 6 20 -3 0
-10 -9 -16 -20z"/>
<path d="M646 854 c-3 -9 -6 -23 -6 -32 0 -21 15 -5 25 26 7 25 -9 31 -19 6z"/>
<path d="M586 845 c-9 -26 -7 -32 5 -12 6 10 9 21 6 23 -2 3 -7 -2 -11 -11z"/>
<path d="M711 842 c-17 -32 -62 -232 -59 -260 4 -25 17 12 77 213 7 22 15 46
17 53 9 19 -24 14 -35 -6z"/>
<path d="M996 845 c-9 -26 -7 -32 5 -12 6 10 9 21 6 23 -2 3 -7 -2 -11 -11z"/>
<path d="M566 795 c-3 -9 -6 -24 -5 -33 0 -9 5 -4 10 12 9 32 6 48 -5 21z"/>
<path d="M617 740 c-3 -11 -1 -20 4 -20 5 0 9 9 9 20 0 11 -2 20 -4 20 -2 0
-6 -9 -9 -20z"/>
<path d="M551 724 c0 -11 3 -14 6 -6 3 7 2 16 -1 19 -3 4 -6 -2 -5 -13z"/>
<path d="M2521 559 c-35 -5 -76 -16 -91 -24 -15 -8 -30 -11 -34 -8 -3 4 -6 2
-6 -4 0 -6 -18 -37 -40 -69 -21 -32 -37 -60 -35 -62 2 -2 19 8 38 22 18 14 36
24 38 21 3 -2 20 9 39 25 19 17 41 28 49 25 8 -3 27 8 43 26 31 34 36 34 43
-1 6 -34 12 -35 30 -6 27 41 36 31 30 -31 l-5 -58 19 31 c31 51 39 48 34 -10
-3 -33 0 -56 6 -60 6 -4 11 -3 11 1 0 5 7 18 16 29 14 18 15 16 10 -26 l-6
-45 30 35 29 35 1 -32 c0 -23 5 -33 15 -33 8 0 15 5 15 10 0 6 7 10 15 10 26
0 23 90 -3 126 -24 33 -118 75 -177 79 -27 2 -79 -1 -114 -6z"/>
<path d="M93 310 c9 -131 31 -310 38 -310 9 0 2 158 -11 279 -13 111 -34 136
-27 31z"/>
<path d="M2229 348 c-12 -23 -12 -23 10 -4 23 21 26 26 11 26 -5 0 -15 -10
-21 -22z"/>
<path d="M1642 288 c7 -19 38 -22 38 -4 0 10 -9 16 -21 16 -12 0 -19 -5 -17
-12z"/>
<path d="M1590 282 c0 -5 7 -15 15 -22 8 -7 15 -8 15 -2 0 5 -7 15 -15 22 -8
7 -15 8 -15 2z"/>
<path d="M1976 195 c-11 -8 -17 -17 -14 -20 2 -3 13 4 23 15 21 23 18 25 -9 5z"/>
<path d="M1646 175 c7 -17 20 -20 28 -6 3 5 -1 12 -10 15 -22 9 -24 8 -18 -9z"/>
</g>
</svg>
